<?xml version="1.0" encoding="UTF-8" standalone="no"?>
<svg
   width="512"
   height="512"
   viewBox="0 0 512 512"
   role="img"
   aria-label="Envelope logo"
   version="1.1"
   id="svg8"
   xml:space="preserve"
   xmlns:xlink="http://www.w3.org/1999/xlink"
   xmlns="http://www.w3.org/2000/svg"
   xmlns:svg="http://www.w3.org/2000/svg"><defs
     id="defs4"><linearGradient
       xlink:href="#linearGradient110"
       id="linearGradient2"
       x1="177.41837"
       y1="453.59073"
       x2="177.41837"
       y2="700.15503"
       gradientTransform="scale(1.218243,0.82085432)"
       gradientUnits="userSpaceOnUse" /></defs><linearGradient
     id="linearGradient110"
     x1="0.5"
     y1="-0.5"
     x2="0.5"
     y2="0.5"><stop
       style="stop-color:#f56a6a;stop-opacity:1;"
       offset="0"
       id="stop109" /><stop
       style="stop-color:#e81212;stop-opacity:1;"
       offset="1"
       id="stop110" /></linearGradient><g
     id="g110"
     transform="matrix(1.6940057,0,0,1.6940057,-135.71256,-52.705201)"
     style="stroke-width:0.590316;filter:url(#f-drop)"><path
       id="path105"
       style="fill:url(#linearGradient2);stroke-width:0.590316"
       d="m 345.63086,372.28125 c -0.74688,-0.0483 -1.33297,0.004 -2.02734,0.004 H 88.673828 c -1.86964,0 -3.641389,-0.1867 -6.824219,1.37695 -1.59141,0.78183 -3.755918,2.37207 -5.042968,5.00586 -1.28706,2.63379 -1.213628,5.66312 -0.705079,7.55469 1.0171,3.78314 2.500942,4.83025 3.613282,5.95507 1.11234,1.12482 2.172568,1.9809 3.298828,2.84571 L 209.0332,491.78906 c 3.59131,2.75781 8.58747,2.75859 12.17969,0.002 L 349.0625,393.62891 c 0.75882,-0.5826 1.47503,-1.10486 2.29688,-1.76953 0.82182,-0.6647 1.81773,-0.58908 3.70117,-4.35743 0.94172,-1.88418 1.71215,-6.62 -0.42578,-10.07422 -2.13793,-3.45423 -4.66284,-4.14087 -6.00586,-4.54492 -1.34301,-0.40406 -2.25116,-0.55329 -2.99805,-0.60156 z m 12.52148,32.38867 c -2.48774,-0.2227 -4.96877,0.49352 -6.95507,2.00781 l -126.18165,96.21485 c -5.84068,4.45356 -13.93857,4.45352 -19.77929,0 L 81.082031,408.22656 c -6.581988,-5.01802 -16.062718,-0.32549 -16.064453,7.95117 v 140.08008 c 0,10.71674 8.94194,19.6543 19.65625,19.6543 H 347.60352 c 10.71431,0 19.65625,-8.93756 19.65625,-19.6543 v -141.6289 c -10e-4,-5.17635 -3.95178,-9.49649 -9.10743,-9.95899 z"
       transform="translate(15.095823,-291.85258)" /><path
       id="path105-2"
       style="color:#000000;font-style:normal;font-variant:normal;font-weight:normal;font-stretch:normal;font-size:medium;line-height:normal;font-family:sans-serif;font-variant-ligatures:normal;font-variant-position:normal;font-variant-caps:normal;font-variant-numeric:normal;font-variant-alternates:normal;font-variant-east-asian:normal;font-feature-settings:normal;font-variation-settings:normal;text-indent:0;text-align:start;text-decoration-line:none;text-decoration-style:solid;text-decoration-color:#000000;letter-spacing:normal;word-spacing:normal;text-transform:none;writing-mode:lr-tb;direction:ltr;text-orientation:mixed;dominant-baseline:auto;baseline-shift:baseline;text-anchor:start;white-space:normal;shape-padding:0;shape-margin:0;inline-size:0;clip-rule:nonzero;display:inline;overflow:visible;visibility:visible;isolation:auto;mix-blend-mode:normal;color-interpolation:sRGB;color-interpolation-filters:linearRGB;solid-color:#000000;solid-opacity:1;fill:none;fill-opacity:1;fill-rule:nonzero;stroke:#ffffff;stroke-width:1.18063;stroke-linecap:round;stroke-linejoin:round;stroke-miterlimit:2;stroke-dasharray:none;stroke-dashoffset:0;stroke-opacity:0.6;color-rendering:auto;image-rendering:auto;shape-rendering:auto;text-rendering:auto;enable-background:accumulate;stop-color:#000000"
       d="m 86.775391,379.76758 c -0.331076,0.0297 -0.612072,0.18086 -1.59961,0.66601 -0.387548,0.1904 -1.243708,0.83456 -1.591797,1.54688 -0.235497,0.48191 -0.228772,2.16601 -0.197265,2.2832 0.630084,2.34362 -0.133593,0.7639 1.691406,2.60938 0.772746,0.78141 1.496558,1.37301 2.529297,2.16601 l 126.019528,96.76563 a 7.5447598,7.5447598 0 0 1 0,0.002 c 0.9107,0.69933 2.08091,0.69827 2.99219,0 l 127.84961,-98.16211 c 0.85016,-0.65273 1.48847,-1.11823 2.14648,-1.65039 1.67818,-1.35733 1.45116,-1.03084 1.11524,-0.72461 -0.33593,0.30623 -0.11294,0.24985 0.58203,-1.14062 -0.29136,0.58294 0.12996,-0.45611 0.14844,-1.25 0.0185,-0.79389 -0.19667,-1.41008 -0.24024,-1.48047 -0.97451,-1.57451 -0.1826,-0.81476 -1.76562,-1.29102 -0.93526,-0.28138 -1.16952,-0.28971 -1.31055,-0.29883 -0.14387,-0.009 -0.46849,0.0215 -1.54101,0.0215 H 88.673828 c -1.185932,0 -1.567362,-0.0922 -1.898437,-0.0625 z m 270.703129,32.41601 c -0.6127,-0.0544 -1.21786,0.12122 -1.70704,0.49414 v -0.002 l -126.18164,96.21484 c -8.51428,6.4922 -20.41346,6.49405 -28.92773,0.002 L 76.507812,414.22656 c -2.001048,-1.52557 -3.944785,-0.56314 -3.945312,1.95313 v 140.07812 c 0,6.52031 5.592342,12.10938 12.111328,12.10938 H 347.60352 c 6.51898,0 12.11132,-5.58907 12.11132,-12.10938 v -141.62695 -0.002 c -10e-4,-1.33689 -0.90282,-2.32497 -2.23437,-2.44532 z"
       transform="translate(15.38537,-291.12561)" /></g></svg>
